<?xml version="1.0" standalone="no"?><!DOCTYPE svg PUBLIC "-//W3C//DTD SVG 1.1//EN" "http://www.w3.org/Graphics/SVG/1.1/DTD/svg11.dtd"><svg t="1721889089313" class="icon" viewBox="0 0 1024 1024" version="1.1" xmlns="http://www.w3.org/2000/svg" p-id="27974" xmlns:xlink="http://www.w3.org/1999/xlink" width="32" height="32"><path d="M0 512v512h1024V0H0v512z m632.1664-380.94848c64.384 47.9232 117.05856 93.9264 117.05856 99.67616s-52.67456 53.67296-117.05856 105.42592L513.15712 430.08 403.90144 345.73824c-60.48256-46.0032-113.15712-93.9264-117.05856-105.42592C280.99072 223.06304 485.84192 40.96 509.25568 40.96c3.90144 0 58.53184 40.25344 122.91072 90.09152zM371.59936 466.94912c63.24224 51.04128 119.35744 96.6144 125.5936 101.1712 7.12704 6.37952 49.87904-22.784 135.39328-92.05248 68.58752-55.59808 129.15712-101.16608 133.61152-101.16608 11.58144 0 63.24224 45.57312 63.24224 55.59808 0 9.1136-295.72608 252.46208-316.2112 260.66432C501.64736 694.80448 179.2 444.16512 179.2 430.49472c0-8.20224 57.00608-54.68672 67.69664-55.59808 5.34528 0 61.46048 41.92768 124.70272 92.05248z m-69.41184 229.888c113.3312 87.0144 208.85504 158.06464 212.09088 157.26592 3.23584-1.59744 101.18656-75.83744 217.75872-166.84544l210.47296-164.44928 32.37888 25.54368c17.80736 14.37184 30.76096 27.93984 28.33408 31.93344-4.85888 7.98208-454.13376 360.03328-478.42304 375.19872-15.38048 8.7808-36.4288-5.58592-260.66432-180.41344C130.57536 669.696 20.48 580.28544 20.48 576.29696c0-13.57312 57.47712-52.68992 67.18976-45.50144 4.85888 3.98848 101.18656 78.22848 214.51776 166.0416z" fill="#0066FF" p-id="27975"></path></svg>