<?xml version="1.0" standalone="no"?><!DOCTYPE svg PUBLIC "-//W3C//DTD SVG 1.1//EN" "http://www.w3.org/Graphics/SVG/1.1/DTD/svg11.dtd"><svg t="1722153451753" class="icon" viewBox="0 0 1024 1024" version="1.1" xmlns="http://www.w3.org/2000/svg" p-id="1739" xmlns:xlink="http://www.w3.org/1999/xlink" width="128" height="128"><path d="M0 128v268.608c138.432-57.6 323.328-115.584 556.032-174.016 149.12-37.376 293.248-68.8 432.448-94.592z m1024 57.28c-134.976 20.032-256 43.648-362.496 70.336-121.92 30.592-220.096 61.568-294.336 93.12-74.304 31.04-108.8 56.064-104 75.392 4.352 17.088 35.456 24.832 93.504 23.232 29.888-0.64 78.208-3.84 145.344-9.792s153.792-14.528 259.904-25.728c105.152-10.88 192.256-18.24 262.08-22.464v-204.16z m-299.776 340.736c-29.888 0.384-70.976 2.624-123.584 6.528-52.8 3.968-118.144 9.6-196.48 17.728-121.6 12.992-222.72 23.168-303.04 29.76-38.528 3.2-72 5.248-101.12 6.848v217.856c159.488-23.296 303.808-51.072 432.448-83.328 126.4-31.68 223.488-62.592 291.84-92.48 68.288-29.824 100.224-55.168 94.912-75.712-4.48-17.728-36.48-26.752-94.976-27.2zM1024 602.496c-140.16 54.912-314.112 108.8-521.984 160.96-193.472 48.512-360.64 83.2-502.016 104.704v1.856h1024v-267.52z m-981.248 45.696c0.512-0.128 0.96 0 1.472 0a10.176 10.176 0 0 1 7.232 2.88 10.048 10.048 0 1 1-17.408 6.144c0.192-4.672 4.096-8.448 8.704-9.088z m36.288 0c2.304 0 4.48 0.512 6.144 2.112 3.2 2.688 4.48 7.424 2.88 11.264a9.92 9.92 0 0 1-9.792 6.528 10.048 10.048 0 0 1-8.704-5.76c-1.92-4.48-0.32-10.368 4.032-12.736a10.24 10.24 0 0 1 5.44-1.408zM44.16 712.32a9.792 9.792 0 0 1 9.408 6.912c1.28 4.416-0.768 9.984-5.12 11.904a10.112 10.112 0 0 1-12.608-3.2c-2.752-3.968-2.368-9.984 1.408-13.056a10.112 10.112 0 0 1 6.912-2.56z m34.816 0c3.392-0.192 6.464 1.984 8.32 4.736a9.856 9.856 0 0 1-2.56 12.992 10.24 10.24 0 0 1-13.76-1.408c-3.392-4.032-3.2-10.88 1.088-14.144a10.624 10.624 0 0 1 6.912-2.176z" fill="#809CC8" p-id="1740"></path></svg>