<?xml version="1.0" standalone="no"?><!DOCTYPE svg PUBLIC "-//W3C//DTD SVG 1.1//EN" "http://www.w3.org/Graphics/SVG/1.1/DTD/svg11.dtd"><svg t="1721887827126" class="icon" viewBox="0 0 1024 1024" version="1.1" xmlns="http://www.w3.org/2000/svg" p-id="22164" xmlns:xlink="http://www.w3.org/1999/xlink" width="32" height="32"><path d="M732.82504 630.428C486.62104 844.602-4.03496 719.192 0.02504 512.544c4.116-209.42 479.828-333.358 733.58-117.108-148.72-89.03-419.206-76.474-545.974 10.74l35.794 154.428 44.198-158.746h33.636l44.296 158.744 36.686-158.744h36.67l-56.346 206.912h-32.612l-45.24-162.52-45.79 162.52H206.40104l-47.188-179.38c-24.14 23.734-38.838 51.592-40.472 83.214-7.506 145.306 361.58 254.304 614.08 117.824z m196.904-59.06v-153.88H887.30104v188.96H1024.00104v-35.08h-94.272z m-145.84-35.88h42.796c-2.472 27.772-19.712 38.01-38.904 40.148-39.268 4.376-59.64-24.134-59.824-62.87-0.884-22.136 6.574-46.428 25.98-58.02 22.48-13.428 59.556-9.072 67.48 24.8h40.63c-13.048-96.702-177.32-91.316-176.52 33.152 3.974 110.008 118.622 116.95 148.184 72.454l4.324 21.44h27.002v-102.198h-81.15v31.096z m-214.936-114.712v63.48c27.116-33.632 96.36-20.808 96.36 51.532-0.94 27.58-8.27 42.522-16.032 54.592-12.872 20.008-56.33 36.394-81.62 5.624v12.8h-25.62v-188.028h26.912z m-1.032 125.256c0 31.736 18.804 42.996 34.908 42.996 11.136 0 19.82-4.666 25.8-13.876 5.62-8.644 8.59-21.016 8.59-35.778-0.642-19.832-2.624-33.88-14.764-42.386-12.156-9.086-32.058-7.452-41.08 1.81-8.41 8.634-14.1 24.114-13.454 47.234zM525.40104 549.04h-98.252c-0.198 47.81 49.674 47.098 64.508 26.594 2.508-3.466 4.748-7.324 5.178-13.072h27.022c-2.36 11.678-5.908 19.344-11.494 27.132-14.08 19.626-38.452 25.986-64.586 21.72-26.246-4.284-48.628-28.14-49.116-68.034-3.768-58.026 50.732-96.498 99.92-66.596 16.204 9.852 26.94 33.14 26.82 72.256z m-27.848-22.076c-0.47-48.824-66.86-47.488-70.376 0h70.376z" fill="#E57373" p-id="22165"></path></svg>