<?xml version="1.0" standalone="no"?><!DOCTYPE svg PUBLIC "-//W3C//DTD SVG 1.1//EN" "http://www.w3.org/Graphics/SVG/1.1/DTD/svg11.dtd"><svg t="1722153494243" class="icon" viewBox="0 0 1024 1024" version="1.1" xmlns="http://www.w3.org/2000/svg" p-id="2842" xmlns:xlink="http://www.w3.org/1999/xlink" width="128" height="128"><path d="M864 789.184a448.064 448.064 0 0 0-167.296-685.44A446.336 446.336 0 0 0 513.536 64h-1.984A446.592 446.592 0 0 0 195.2 195.2a448 448 0 1 0 668.8 593.92z m-51.008-38.272l-20.672-15.552c2.688-13.44 4.352-28.8 4.352-46.336v-4.672c0-41.344 0-60.16-29.184-76.864a348.288 348.288 0 0 0-28.864-14.592c-16.448-7.424-27.328-12.352-42.048-33.856l-5.184-7.68c-15.488-23.552-26.624-40.512-69.12-33.728-83.52 13.248-89.728 27.904-93.44 52.736l-0.512 4.096c-5.44 36.224-6.4 48.448 8.704 64.384 56.704 59.456 90.624 102.336 100.928 127.36 4.608 11.328 15.936 43.52 10.752 77.184l-51.328 43.776C570.112 893.056 541.696 896 512 896c-106.048 0-196.544-37.504-271.552-112.448C165.504 708.48 128 618.048 128 512c0-104.384 36.352-193.728 108.992-268.032l16.768 19.52a57.152 57.152 0 0 1 13.696 19.264c9.152 20.48 9.152 41.6 9.152 60.288v0.384c0 14.528 0 28.288 4.672 38.4 6.528 13.76 34.304 19.584 58.88 24.768 8.832 1.92 17.92 3.776 26.176 6.016 22.656 6.272 40.192 26.688 54.208 43.008 5.888 6.784 14.464 16.768 18.816 19.264a45.44 45.44 0 0 0 13.056-22.272c2.752-9.856 1.92-18.56-2.048-23.296-25.024-29.568-23.68-86.528-16-107.52 12.16-33.088 50.24-30.592 78.144-28.8 10.432 0.64 20.224 1.28 27.52 0.384 27.904-3.52 36.48-45.888 42.56-54.208 11.84-16.256 45.824-39.936 70.592-56.64l12.992-23.552a383.424 383.424 0 0 1 117.376 81.472C858.496 315.52 896 405.952 896 512c0 91.072-27.648 170.752-83.008 238.912z" fill="#e8a859" p-id="2843"></path></svg>